HIERARCHY
ROOT Hips
{
	OFFSET 0.000000 88.474243 0.000000
	CHANNELS 6 Xposition Yposition Zposition Zrotation Yrotation Xrotation 
	JOINT Hips_Spine
	{
		OFFSET 0.000000 0.000000 0.000000
		CHANNELS 3 Zrotation Yrotation Xrotation
		JOINT Spine
		{
			OFFSET 0.005100 8.711998 -0.691000
			CHANNELS 3 Zrotation Yrotation Xrotation
			JOINT Spine1
			{
				OFFSET -0.009200 8.660301 -1.275000
				CHANNELS 3 Zrotation Yrotation Xrotation
				JOINT Spine2
				{
					OFFSET 0.006300 9.852501 -1.857000
					CHANNELS 3 Zrotation Yrotation Xrotation
					JOINT Spine2_Neck
					{
						OFFSET 0.000000 0.000000 0.000000
						CHANNELS 3 Zrotation Yrotation Xrotation
						JOINT Neck
						{
							OFFSET 0.016300 11.420799 -0.263300
							CHANNELS 3 Zrotation Yrotation Xrotation
							End Site #name: Head
							{
								OFFSET -0.019200 9.262405 2.362500
							}
						}
					}
					JOINT Spine2_LeftShoulder
					{
						OFFSET 0.000000 0.000000 0.000000
						CHANNELS 3 Zrotation Yrotation Xrotation
						JOINT LeftShoulder
						{
							OFFSET 5.616900 6.732201 -0.345700
							CHANNELS 3 Zrotation Yrotation Xrotation
							JOINT LeftArm
							{
								OFFSET 10.664888 -0.183372 -2.440700
								CHANNELS 3 Zrotation Yrotation Xrotation
								JOINT LeftForeArm
								{
									OFFSET 27.459126 0.000000 0.000000
									CHANNELS 3 Zrotation Yrotation Xrotation
									End Site #name: LeftHand
									{
										OFFSET 21.306858 0.000000 0.000000
									}
								}
							}
						}
					}
					JOINT Spine2_RightShoulder
					{
						OFFSET 0.000000 0.000000 0.000000
						CHANNELS 3 Zrotation Yrotation Xrotation
						JOINT RightShoulder
						{
							OFFSET -5.580300 6.737503 -0.344400
							CHANNELS 3 Zrotation Yrotation Xrotation
							JOINT RightArm
							{
								OFFSET -10.679335 -0.188484 -2.383900
								CHANNELS 3 Zrotation Yrotation Xrotation
								JOINT RightForeArm
								{
									OFFSET -27.503529 0.000000 0.000000
									CHANNELS 3 Zrotation Yrotation Xrotation
									End Site #name: RightHand
									{
										OFFSET -21.306808 0.000000 0.000000
									}
								}
							}
						}
					}
				}
			}
		}
	}
	JOINT Hips_LeftUpLeg
	{
		OFFSET 0.000000 0.000000 0.000000
		CHANNELS 3 Zrotation Yrotation Xrotation
		JOINT LeftUpLeg
		{
			OFFSET 6.857700 -6.739601 0.312100
			CHANNELS 3 Zrotation Yrotation Xrotation
			JOINT LeftLeg
			{
				OFFSET -0.367590 -34.731552 -4.572400
				CHANNELS 3 Zrotation Yrotation Xrotation
				End Site #name: LeftFoot
				{
					OFFSET 0.367590 -34.656704 -6.067400
				}
			}
		}
	}
	JOINT Hips_RightUpLeg
	{
		OFFSET 0.000000 0.000000 0.000000
		CHANNELS 3 Zrotation Yrotation Xrotation
		JOINT RightUpLeg
		{
			OFFSET -6.876100 -6.733299 0.301000
			CHANNELS 3 Zrotation Yrotation Xrotation
			JOINT RightLeg
			{
				OFFSET 0.347353 -34.795158 -4.515900
				CHANNELS 3 Zrotation Yrotation Xrotation
				End Site #name: RightFoot
				{
					OFFSET -0.347353 -34.589367 -6.070300
				}
			}
		}
	}
}
MOTION
Frames: 13
Frame Time: 0.041667
0.034703 -0.025815 -0.098317 -8.272219 46.910295 -4.455120 -0.000000 -0.000000 0.000000 -3.497846 -0.281729 0.395684 2.157291 -0.448879 3.147381 0.000000 0.000000 0.000000 2.466175 -0.974575 0.687781 -1.510196 -4.394646 -1.598452 1.243973 0.221285 1.685950 -9.277360 -3.802793 1.208106 -74.660648 -1.261414 -1.746952 0.314528 -18.433648 2.461526 1.580596 -0.795782 2.139068 15.014824 8.864027 4.689232 53.112209 6.283293 -10.075876 -6.122390 67.394354 -2.059690 0.000000 -0.000000 0.000000 -2.641190 15.732631 -17.890190 -4.915917 -22.797127 2.206931 0.000000 -0.000000 -0.000000 -1.620266 -18.839325 -10.882275 -11.874277 -10.295176 17.401959 
-0.157244 -0.171295 -0.137351 -7.139225 40.593789 -0.883086 -0.000000 -0.000000 0.000000 -5.352023 -3.257676 1.142019 3.286953 -0.215193 2.732193 0.000000 0.000000 0.000000 2.784134 -0.762011 2.190474 -0.051842 -7.265870 -1.578946 2.035942 -0.146877 1.231511 -7.195056 -7.411790 1.423248 -79.418924 -12.540126 -8.784686 -1.213575 -9.810242 1.733316 3.269150 -0.945370 2.409438 18.898604 9.408870 2.989905 54.736671 4.756780 -8.237647 -2.971656 51.846552 0.907220 0.000000 -0.000000 -0.000000 -1.988924 16.332250 -18.166264 -4.341884 -21.197131 0.072975 0.000000 -0.000000 -0.000000 -2.248527 -16.563288 -10.442303 -8.999661 -7.605021 16.804317 
-0.163637 -0.218797 -0.153094 -7.949986 41.672403 -1.001471 -0.000000 -0.000000 0.000000 -4.666745 -6.159788 1.203348 4.099397 -0.365609 3.007778 0.000000 0.000000 0.000000 3.732299 -0.906988 3.481975 0.252661 -11.528320 -1.107861 2.329968 -0.001802 1.269884 -5.652446 -7.461985 0.742466 -79.790886 -14.584419 -13.481400 -0.898432 -0.597355 1.847409 4.020714 -1.036549 2.755546 19.676052 10.071896 3.042444 54.811717 5.187823 -5.228636 -3.113792 51.921568 1.137559 0.000000 -0.000000 -0.000000 -0.883024 17.204399 -17.608888 -4.603901 -21.004102 0.731966 0.000000 0.000000 -0.000000 -2.184393 -19.071798 -8.951289 -7.056751 -6.443569 15.741167 
-0.103353 -0.279836 -0.189112 -9.215229 43.315835 -2.821030 -0.000000 -0.000000 0.000000 -3.534484 -7.359248 1.864382 4.294003 -0.619748 3.451549 0.000000 0.000000 0.000000 4.091959 -1.099020 4.174919 0.063043 -13.630085 -0.806219 2.458611 -0.185169 1.296964 -4.907711 -6.283654 -0.336063 -81.340831 -17.202257 -14.590817 -0.845186 4.596795 1.810538 4.292402 -1.401607 3.116698 18.668842 9.129024 2.662546 55.568637 5.410174 -5.480449 -4.342701 61.858471 -0.010790 0.000000 -0.000000 -0.000000 -0.282612 18.195454 -16.753635 -4.086217 -21.305502 0.744751 -0.000000 0.000000 -0.000000 -2.098787 -22.356668 -7.754665 -6.542619 -5.369475 14.728009 
-0.039034 -0.332721 -0.246523 -10.094747 44.203195 -4.250412 -0.000000 -0.000000 0.000000 -1.784352 -7.445495 2.397763 4.167007 -0.847090 3.694351 0.000000 0.000000 0.000000 4.121379 -1.261088 4.819507 -0.157733 -14.448667 -0.638962 2.382821 -0.397694 1.551562 -4.322030 -4.562600 -1.639213 -82.637313 -18.739291 -14.763434 -0.867354 7.861602 2.204948 4.236287 -1.675794 3.423174 17.688586 7.615997 1.911671 57.243515 5.926164 -5.904029 -6.629998 73.213616 -2.249172 0.000000 0.000000 -0.000000 0.151728 18.928533 -15.889810 -3.746192 -21.873265 0.617892 -0.000000 -0.000000 -0.000000 -1.952773 -24.719281 -6.716599 -7.314236 -5.036856 14.031518 
0.028275 -0.367202 -0.311822 -10.627138 44.816613 -5.025007 -0.000000 -0.000000 0.000000 -0.106167 -6.935253 2.865194 3.762091 -0.997717 3.860720 0.000000 0.000000 0.000000 3.932128 -1.317737 5.196400 -0.022163 -14.475783 -1.026836 2.164441 -0.531543 2.048442 -4.353592 -3.866001 -1.905622 -83.461847 -19.664246 -14.197889 -0.850657 9.369720 2.667788 3.949179 -1.857187 3.739634 17.383418 7.558256 1.239586 58.549538 5.556899 -5.678350 -10.047181 79.414141 -5.576878 0.000000 0.000000 -0.000000 0.297284 19.133906 -15.509729 -3.589443 -22.409513 0.579665 -0.000000 -0.000000 -0.000000 -1.806341 -26.095618 -6.127453 -8.301823 -5.424856 13.789907 
0.097300 -0.389259 -0.381168 -10.776724 45.126264 -5.046382 -0.000000 -0.000000 0.000000 1.170046 -6.465994 3.098656 3.302736 -1.027322 4.128710 0.000000 0.000000 0.000000 3.653566 -1.308296 5.484036 -0.158934 -14.147599 -1.245929 1.905801 -0.585439 2.586330 -4.552754 -3.226267 -2.011149 -83.934364 -20.254062 -13.524449 -0.730661 9.734156 3.189659 3.537940 -1.977784 4.120389 17.234467 8.539723 0.765751 59.262681 4.804993 -5.339166 -12.828847 81.517218 -8.294664 0.000000 0.000000 -0.000000 0.317417 19.014078 -15.336426 -3.427668 -22.949211 0.253224 -0.000000 -0.000000 -0.000000 -1.728356 -27.143738 -5.954926 -9.055696 -6.197153 13.774297 
0.163229 -0.407912 -0.450740 -10.769265 45.221592 -4.741511 -0.000000 -0.000000 0.000000 2.284826 -5.821877 3.033650 2.929648 -0.989289 4.405565 0.000000 0.000000 0.000000 3.389055 -1.271332 5.683228 -0.259058 -14.118674 -1.425949 1.683048 -0.567216 3.103746 -4.609660 -2.778461 -2.092386 -84.382112 -20.472908 -13.199574 -0.508117 9.630945 3.661224 3.143882 -2.027865 4.458644 17.118864 9.484635 0.693389 59.522998 3.961739 -4.905794 -13.314766 81.557217 -8.827078 0.000000 0.000000 -0.000000 0.315393 18.750724 -15.229876 -3.231650 -23.453540 -0.300430 -0.000000 0.000000 -0.000000 -1.669334 -27.988410 -6.061194 -9.471798 -6.878075 13.989453 
0.223399 -0.427188 -0.516995 -10.736690 45.323449 -4.391302 -0.000000 -0.000000 0.000000 3.062011 -5.116944 2.954283 2.682966 -0.925672 4.644305 0.000000 0.000000 0.000000 3.187723 -1.233313 5.823699 -0.175553 -14.292324 -1.594983 1.531578 -0.515221 3.503868 -4.418066 -2.435460 -2.256199 -84.865380 -20.531910 -13.265952 -0.357421 9.311442 3.916700 2.868194 -2.035481 4.692103 16.875545 9.813105 0.988254 59.495167 3.113760 -4.336611 -12.961763 81.155150 -8.592004 0.000000 0.000000 -0.000000 0.336367 18.514502 -15.156652 -3.058253 -23.851842 -0.814376 -0.000000 0.000000 -0.000000 -1.602216 -28.686221 -6.278809 -9.772111 -7.464170 14.275518 
0.278145 -0.447278 -0.579034 -10.722233 45.462708 -4.134184 -0.000000 -0.000000 0.000000 3.510024 -4.525010 2.909570 2.564963 -0.882731 4.844674 0.000000 0.000000 0.000000 3.089146 -1.214258 5.950517 -0.033420 -14.499756 -1.754853 1.408925 -0.426483 3.870968 -4.083806 -2.232160 -2.415541 -85.428663 -20.590300 -13.530212 -0.268627 8.834862 4.001214 2.698961 -2.015234 4.897888 16.455674 9.964658 1.177745 59.496767 2.315786 -3.926893 -13.920066 81.873264 -9.663593 0.000000 0.000000 -0.000000 0.374333 18.373101 -15.076134 -2.913392 -24.116014 -1.200992 0.000000 0.000000 -0.000000 -1.576175 -29.249355 -6.468793 -9.950043 -7.927808 14.548130 
0.328435 -0.468843 -0.638099 -10.763586 45.626667 -4.048812 0.000000 -0.000000 0.000000 3.726033 -4.155995 2.975561 2.523275 -0.873541 5.025839 0.000000 0.000000 0.000000 3.062698 -1.217804 6.062241 0.144836 -14.731278 -1.847192 1.348147 -0.361049 4.179849 -3.733936 -2.122816 -2.517017 -85.982582 -20.684249 -13.804232 -0.231137 8.453293 3.911271 2.636018 -2.029005 5.067988 15.913529 10.153457 1.195393 59.557245 1.669009 -3.525282 -18.160153 83.876199 -13.977893 0.000000 0.000000 -0.000000 0.437496 18.295899 -14.921435 -2.801966 -24.303925 -1.508540 0.000000 0.000000 -0.000000 -1.568482 -29.493180 -6.592220 -9.960683 -8.228069 14.745557 
0.375025 -0.490456 -0.696994 -10.828001 45.712855 -4.063484 0.000000 -0.000000 0.000000 3.775021 -4.055376 3.197662 2.522735 -0.900266 5.211175 0.000000 0.000000 0.000000 3.076447 -1.246586 6.179006 0.343448 -14.913579 -1.928969 1.320979 -0.335249 4.423939 -3.452651 -2.041923 -2.594969 -86.428856 -20.817354 -13.959889 -0.219601 8.123851 3.712717 2.629341 -2.076711 5.220675 15.434878 10.228838 1.100735 59.728808 1.305559 -3.239337 -33.456758 86.627683 -29.297698 0.000000 0.000000 -0.000000 0.516195 18.282604 -14.710696 -2.728312 -24.438745 -1.753564 0.000000 0.000000 -0.000000 -1.571600 -29.474851 -6.642801 -9.847771 -8.452881 14.852941 
0.418546 -0.511375 -0.757822 -10.905387 45.735053 -4.135806 0.000000 -0.000000 0.000000 3.745814 -4.150052 3.545997 2.539231 -0.954461 5.394841 0.000000 0.000000 0.000000 3.104422 -1.295250 6.304009 0.543084 -15.066262 -2.002378 1.307900 -0.343963 4.630197 -3.223079 -2.001434 -2.663751 -86.758791 -20.934832 -14.030585 -0.213196 7.847141 3.485236 2.648640 -2.144502 5.386591 15.078206 10.321665 0.983736 59.967668 1.137266 -2.974323 -118.852596 87.954726 -114.649464 0.000000 0.000000 -0.000000 0.598478 18.304672 -14.458499 -2.660050 -24.622367 -2.008009 0.000000 0.000000 -0.000000 -1.576910 -29.261475 -6.634699 -9.655099 -8.607974 14.870741 
